<svg xmlns="http://www.w3.org/2000/svg" width="866" height="715" fill="none" viewBox="0 0 866 715"><g filter="url(#a)"><path fill="#162C4E" fill-rule="evenodd" d="M321.61 712.502c107.203 15.493 60.416-89.794 113.203-118.931 64.123-35.393 412.5 39.025 431-58.466 0-168.358-225.86-167.046-250.5-238.819-23.887-69.58-69.854-182.465-121-235.366-48.956-50.635-177-106.94-248.5 0-51.5 81.454-21.341 120.377-69.444 152.295-50.935 33.798-115.42 51.906-144.267 105.781C.84 377.382-11.54 452.064 16.307 512.151c27.106 58.484 101.21 72.077 155.117 107.453 50.448 33.106 89.835 93.239 150.186 92.898Z" clip-rule="evenodd"/></g><defs><filter id="a" color-interpolation-filters="sRGB"><feOffset dy="4"/><feGaussianBlur result="offset-blur" stdDeviation="15"/><feComposite in="SourceGraphic" in2="offset-blur" operator="out" result="inverse"/><feFlood flood-color="#000" flood-opacity=".95" result="color"/><feComposite in="color" in2="inverse" operator="in" result="shadow"/><feComposite in="shadow" in2="SourceGraphic"/></filter></defs></svg>